<svg height="512" viewBox="0 0 128 128" width="512" xmlns="http://www.w3.org/2000/svg"><g><path d="m16 64c0 4.029 6.428 7.16 7.421 10.876 1.028 3.844-2.943 9.763-1 13.129 1.979 3.415 9.109 2.922 11.879 5.695s2.279 9.9 5.693 11.877c3.367 1.947 9.285-2.024 13.13-1 3.717.995 6.848 7.423 10.877 7.423s7.16-6.428 10.876-7.421c3.844-1.028 9.763 2.943 13.129 1 3.415-1.979 2.922-9.109 5.695-11.879s9.9-2.279 11.877-5.693c1.947-3.367-2.024-9.286-1-13.13.995-3.717 7.423-6.848 7.423-10.877s-6.428-7.16-7.421-10.876c-1.028-3.844 2.943-9.763 1-13.129-1.979-3.415-9.109-2.922-11.879-5.695s-2.279-9.9-5.693-11.877c-3.367-1.947-9.285 2.024-13.13 1-3.717-.995-6.848-7.423-10.877-7.423s-7.16 6.428-10.876 7.421c-3.844 1.027-9.763-2.943-13.129-1-3.415 1.979-2.922 9.109-5.695 11.879s-9.9 2.279-11.877 5.693c-1.947 3.366 2.024 9.286 1 13.13-.995 3.717-7.423 6.848-7.423 10.877z" fill="#ffc26f"/><circle cx="64" cy="64" fill="#f89068" r="29.698"/><path d="m60.911 76.38a3.985 3.985 0 0 0 2.829-1.172l16.76-16.76a4 4 0 0 0 -5.656-5.656l-13.933 13.931-7.754-7.754a4 4 0 1 0 -5.657 5.656l10.583 10.583a3.982 3.982 0 0 0 2.828 1.172z" fill="#fffff8"/></g></svg>